<svg xmlns="http://www.w3.org/2000/svg" width="256" height="256" viewBox="0 0 256 256"><path d="M58.2 167.1a33 33 0 0 0-7.7.9c0 .3.3.6.8 1l2 1.1 2.7 1 2.8.9 2.4.6 1.5.2h2.2l2.5-.4 2.4-.9a4.5 4.5 0 0 0 1.7-1.5 27.9 27.9 0 0 0-6.4-2.2 31.7 31.7 0 0 0-6.9-.7z"/><path d="M127.7-.2a128 128 0 1 0 128 128 128 128 0 0 0-128-128zm83.5 70.6v.3a7.1 7.1 0 0 1-.1 1.4l-.3 2.1c-.1.7-.2 1.4-.4 2.1l-.2 1.4a9.9 9.9 0 0 0-.9 1.8l-.6 2-.6 2a16.1 16.1 0 0 1-.7 2 30.9 30.9 0 0 1-1.7 3.1 21.3 21.3 0 0 0-1.6 3.1L184 119.6l-.2.6-.3.3-.3.3-.4.5-1.7 2.3-2.1 2.9-2.2 3.3c-.7 1.1-1.4 2.2-2 3.3a24.5 24.5 0 0 0-1.4 3 6.9 6.9 0 0 0-.5 2.3c0 .3-.2.5-.2.7s.2.4.2.7c-.2 0-.3.1-.3.4s.1.4.3.4v10.2a2.7 2.7 0 0 1-.2 1c-.2.4-.2.8-.4 1.2s-.5.8-.6 1.2-.4.8-.4 1.1v1.7a.4.4 0 0 1 0 .4l-.4.8-.7.8c-.2.3-.5.4-.5.4v.4c0 .1.7.2.8.4s.9.3.9.4v2.8a23.4 23.4 0 0 1-.6 3.5c-.2 1.2-.6 2.4-.8 3.5s-.5 2.4-.7 3.5a22.9 22.9 0 0 0-.3 3.5 61.8 61.8 0 0 0 .3 6.3 42.1 42.1 0 0 0 1.1 6.2 32.2 32.2 0 0 0 2.1 5.8 23.6 23.6 0 0 0 3.4 5.3l-1.3.8-1.7.7-1.7.5H169l-1-.3-1.2-.3-1-.2-.8-.2-.8-.3-.6-.5a1.4 1.4 0 0 1-.3-.7 30 30 0 0 0 .1-4.1c-.1-1.4-.2-2.9-.3-4.3s-.3-2.9-.5-4.3-.4-2.8-.5-4.1l-.2-.6a1.5 1.5 0 0 0-.3-.6c.1-1.1.1-2.3.1-3.7s0-2.7-.1-4.1a26.3 26.3 0 0 0-.6-4 11.6 11.6 0 0 0-1.4-3.4 3.4 3.4 0 0 0-1.5 1.8 22.2 22.2 0 0 0-.8 2.7c-.2 1-.2 1.9-.4 2.9s-.9 1.8-.9 2.4v8c0 2.9-.2 5.6-.1 8.3s.2 5.5.6 8.3l.4.3.8.6.8.7a.9.9 0 0 1 .3.6c0 .2-.3.5-.8.8l-1.9.9-2 .8-1.3.4h-.2l-4.8-2.6a.5.5 0 0 1-.2-.5v-.6a22.5 22.5 0 0 1 0-3 21.8 21.8 0 0 0 .1-3 26.4 26.4 0 0 0-.3-3.8c-.2-1.3-.4-2.5-.6-3.7s-.4-2.5-.6-3.8a30 30 0 0 1-.3-3.9c0-1.2 0-2.4.1-3.3s.2-1.9.3-2.8l.5-2.8.7-3.2a1.4 1.4 0 0 0-.1-.7 4.1 4.1 0 0 1-.1-.7l-1.9.2-1.9.5-1.9.6-1.9.5-1.4.2h-2.1l-1.1-.2h-1.8c-1.8 0-3.6.1-5.3 0s-3.5-.2-5.3-.2h-2.5a4.1 4.1 0 0 0-2.4.9c.1 1.8.1 3.5 0 5.2s-.1 3.4-.2 5.1l-.3 5.1c-.1 1.7-.2 3.5-.2 5.2v5.1c0 .6.7 1.1 1.1 1.7l1.4 1.7 1.2 1.8a3.5 3.5 0 0 1 .5 1.8v.4a9.2 9.2 0 0 1-4.1.4c.1.5 0 .7-.2.8h-2.7l-2.3-.2a4.3 4.3 0 0 1-1.8-.9 2.2 2.2 0 0 1-.8-1.9 7 7 0 0 1 .1-1.3l.3-1.3c.1-.4.2-.9.3-1.3a6.4 6.4 0 0 0 .1-1.4 26.2 26.2 0 0 0-.3-3.9c-.2-1.2-.4-2.4-.7-3.6s-.5-2.7-.8-3.8a27.3 27.3 0 0 1-.7-4h.3c-.2 0-.4.8-.5.9l-.4.7-.3.5-1.6 2.3-1.5 2.3a16.8 16.8 0 0 0-1.1 2.4 8.5 8.5 0 0 0-.4 2.7 4.4 4.4 0 0 0 .3 1.6l.7 1.5.7 1.2.3.6a.9.9 0 0 1-.4.7l-1 .5-1.3.3h-4.3a2.1 2.1 0 0 1-1.8-1.3 9.5 9.5 0 0 1-.6-1.6l-.5-1.6a5.1 5.1 0 0 1-.3-1.7 3.4 3.4 0 0 1 .4-1.5l1-1.6 1.1-1.6a7.3 7.3 0 0 0 .8-1.5l2.5-5.9 2.5-5.9.5-.8.5-.7.4-.8a1.8 1.8 0 0 0 .2-.8c0-.4-.1-.6-.3-.6h-1.3l-9 2.5a2.8 2.8 0 0 1-1.3.5l-1.8.4-1.6.6a1.1 1.1 0 0 0-.7 1.1 1.5 1.5 0 0 0 .3.9l.7.7.8.6.8.6-.4.4-1.3-.9-1.4-.8-1.5-.6-1.5-.2a14.7 14.7 0 0 0-3.8.5l-4 1.1-4.1 1.2a17.3 17.3 0 0 1-4.2.5l-3.5-.4-4.9-1.1-5.5-1.8a38.1 38.1 0 0 1-5-2.3 15.9 15.9 0 0 1-3.7-2.7 4.2 4.2 0 0 1-1.5-3 4.5 4.5 0 0 1 1.1-3.3 6.4 6.4 0 0 1 2.8-1.7 14.2 14.2 0 0 1 3.5-.2c1.2-.1 2.4.3 3.4.3h4a2.6 2.6 0 0 1 1.3-.3l2.4.2 2.6.3 2 .3 2 .5 1.8.9 1.8.8a6.2 6.2 0 0 0 2 .3 8.8 8.8 0 0 0 4-1.1 30.8 30.8 0 0 0 4.2-2.6L87 161l3.3-2.7 1.9-1.3 1.9-1.1 1.7-1.3a8 8 0 0 0 1.5-1.7 37.9 37.9 0 0 0 2.6-4.5 31.5 31.5 0 0 1 2.7-4.5 7 7 0 0 1 1.3-1.3l1.6-1 1.6-.9 1.6-.9 3.6-2.7 3.5-2.9 3.4-3 3.5-2.9a21.6 21.6 0 0 1 3.8-2.2l4-1.9 2.5-1.3 2.5-1.3 2.6-1.2a12.6 12.6 0 0 1 2.7-.8l22.6-3.3a10.9 10.9 0 0 0 3.5-1.1 20.3 20.3 0 0 0 3.4-2.2 32.3 32.3 0 0 0 3.2-2.9l2.9-3.3 2.7-3.2 2.3-2.8 7.8-9 .3-.3.5-.6.5-.5.3-.3 2.1-3.3.3-.2.4-.2.4-.2.2-.2.4-.4.4-.4 1.3-1.7 1.4-2 1.3-2 1-1.7a12.9 12.9 0 0 0 .9-2l.1-1.8c.2-.7.5-1.5.8-2.2s1-1.5 1-2.2v-6.2a5.2 5.2 0 0 0-1.1-3.1 11.7 11.7 0 0 0-2.7-2.6 13.2 13.2 0 0 0-3.4-1.8 9.3 9.3 0 0 0-3.2-.7 24.9 24.9 0 0 0-5.9.7 12.3 12.3 0 0 0-5.2 2.7l-1.3 1.3-1.6 1.9-1.8 2-1.9 1.9-1.8 1.3a3.5 3.5 0 0 1-1.8.5 1.7 1.7 0 0 1-1.7-1.6V65l.2-.8V63a5.2 5.2 0 0 0-.2-1.7l-.6-1.4-.6-1.2a3.1 3.1 0 0 1-.2-1.3 1.1 1.1 0 0 0 .9-.3l.5-.6.4-.8a1.7 1.7 0 0 1 .8-.6h2.9a1.1 1.1 0 0 0 1-.4l.7-.7h.4l.3.4.2.4a.5.5 0 0 1 .4-.4l.6-.4 1.1-.7 1.4-.8 1.4-.8 1.1-.7.6-.4 2.1-1.3 1.8-.6 1.9-.2h6.5l1.5.5 1.5.3 1.6.3 1.6.5a15.2 15.2 0 0 1 4.6 3 17.3 17.3 0 0 1 3.2 4.2 19.6 19.6 0 0 1 1.7 5.1 24.2 24.2 0 0 1 .5 5.5v2.6z"/></svg>