<svg xmlns="http://www.w3.org/2000/svg" width="256" height="256" viewBox="0 0 256 256"><path d="M132.6 151.1c-.3 0-.4.2-.4.6h-.1a.4.4 0 0 0-.5.5c0 .4.2.6.5.6s.4-.2.4-.6h.1c.4 0 .5-.2.5-.5s-.2-.6-.5-.6zm1.4-.8a2.4 2.4 0 0 0-.9.8h.3a2.2 2.2 0 0 0 1.1-.3 2.3 2.3 0 0 0 .9-.8h-.3a2.1 2.1 0 0 0-1.1.3zm3.1-2.6c-.3 0-.4.2-.4.6h-.1c-.3 0-.4.2-.4.6h-.2c-.3 0-.5.2-.5.6s.2.6.5.6.5-.2.5-.6h.1c.3 0 .5-.2.5-.6h.1c.4 0 .5-.2.5-.6s-.2-.6-.6-.6zm23.4-5.9a14.2 14.2 0 0 1-1.3 1.4 1.8 1.8 0 0 0 .8 1.1l1.2.2a2.2 2.2 0 0 0 1.4-.5 4.8 4.8 0 0 0 1.1-1.2 10.3 10.3 0 0 0 .8-1.5c.2-.5.4-1.2.5-1.2h-3.4c-.3 0-.6 1.1-1.1 1.7z"/><path d="M128-.2a128 128 0 1 0 128 128A128 128 0 0 0 128-.2zm96 75.9l-1.6.4h-3.7a42.8 42.8 0 0 0-5.2 1.3 16.1 16.1 0 0 0-3.7 1.6 9.4 9.4 0 0 0-2.5 2.2 14 14 0 0 0-1.8 3 36.1 36.1 0 0 0-1.5 3.9l-1.7 5.1-1.2 3.5c-.4 1.1-.8 2.2-1.3 3.2s-.9 2.1-1.5 3.2l-1.8 3.3a33.5 33.5 0 0 1-2.7 4.1l-3 3.7-3.1 3.6c-1.1 1.2-2.1 2.5-3.1 3.9a10.6 10.6 0 0 0-1.4 2.7c-.3.9-.6 1.8-1 2.6a8.4 8.4 0 0 1-1.4 2.2 5.6 5.6 0 0 1-2.5 1.6l-1.4.6-2 .7-2.1.6-1.4.4a2.9 2.9 0 0 1 .2 2 2 2 0 0 1-.9.9l-1.2.6a1.7 1.7 0 0 0-.9 1l-2.3 6.8a2.7 2.7 0 0 1-1.1 1.5 5.9 5.9 0 0 1-1.8.9 11.4 11.4 0 0 1-2 .2 14.9 14.9 0 0 1-1.9-.1h-.5c-.5 0-.9.2-1.1.1s-.4-.3-.4-.9a.6.6 0 0 1 .1-.4l.2-.3.2-.3a.7.7 0 0 0 .1-.4.5.5 0 0 1 0-.2 23.4 23.4 0 0 0-3.5 1.7l-3.4 2.1-3.4 2.2-3.4 2-.9.5-1.2.6-1 .8a1.5 1.5 0 0 0-.4 1.1v.3a1.6 1.6 0 0 1 0 .2l1.8 1.6 2 1.7 2.1 1.6 2.1 1.3 1.8.7 2 .5 1.9.7a7.5 7.5 0 0 1 1.7.9 8.3 8.3 0 0 1 1.4 1.4l1.1 1.5 1.1 1.5a6.2 6.2 0 0 0 1.5 1.3l1.7.6 2.1.7a6.3 6.3 0 0 1 1.8 1 2.1 2.1 0 0 1 .8 1.7v.5l-5.7 1.2-1.1.4a2.4 2.4 0 0 1-1.2.3h-.6l-1.1-.6-1.8-1-1.7-1-1.1-.8-.2-.2-.3-.5-.4-.6-.3-.5-2.3-4.5-1.2-.5-1.8-.8-2.2-.9-2.2-1-1.8-.8-1.1-.6-2.8-1.6a16.3 16.3 0 0 1-2.6-2.2 13.3 13.3 0 0 1-2-2.7 8.2 8.2 0 0 1-1.1-3.2l-.6.2-.6.3-.9.7-1.7 1.2-2.1 1.4-2.1 1.4-1.8 1.1-1 .5-6 3.6a23.4 23.4 0 0 0-4.6 3.4 17.4 17.4 0 0 0-3.6 4.5c-.9 1.7-.7 3.9-2.4 6.7v.2a3.4 3.4 0 0 1 0 .4v.9a10 10 0 0 0 1.2 4.5 7.9 7.9 0 0 0 2.1 2.6 8.5 8.5 0 0 0 2.6 1.4l2.6 1a5.8 5.8 0 0 1 2 1 5.1 5.1 0 0 1 .8 2H102l-.2-.4c-.1-.2-.2-.1-.4-.2l-.5-.2-.6-.3a3 3 0 0 1-1.3-1.5 8.8 8.8 0 0 1-.5-2.2 15.9 15.9 0 0 1 .2-2.3c0-.8.3-1.5.3-2.1v-1.5a7 7 0 0 1 .3-1.8c.2-.8.3-1.7.6-2.7s.5-2.1.8-3.2l.8-3.2.7-2.7.4-1.8a15.4 15.4 0 0 1 .7-2 13.3 13.3 0 0 1 1-1.9 14.5 14.5 0 0 0 4.5-2.6 27.8 27.8 0 0 0 3.3-3.3l2.9-3.5a15.5 15.5 0 0 1 3.5-3.1l1.5-.7 2.1-.8 2.3-1 2.2-1.1a8.1 8.1 0 0 0 1.6-1.3 2.4 2.4 0 0 0 .6-1.6v-1.3a1.9 1.9 0 0 0-.6-1.2l-.8-.3-1.2-.5-1.2-.6-.8-.3a10.3 10.3 0 0 1-2.1-1.2l-2.7-1.9c-.9-.7-1.8-1.1-2.6-1.6a3.2 3.2 0 0 0-1.8-.6h-7.9c-6 0-12-.1-17.8.1s-11.8.2-17.8.2c-4.4 0-8.7-.2-13-.4a109.6 109.6 0 0 1-12.4-1.5 86.4 86.4 0 0 1-12.1-3 70 70 0 0 1-11.9-5.1l-1.4-.7-1.6-1a6 6 0 0 1-1.3-1.3 2.6 2.6 0 0 1-.5-1.6 7 7 0 0 1 2.1.4l2.4.9 2.2 1 1.5.6 4.7 1.7 5.1 1.5 5.2 1a33.9 33.9 0 0 0 4.9.4h26.7l2.6-.4 3.4-.5 3.7-.6 3.5-.6 2.7-.6 6.9-1.4 7.4-1.6c2.5-.6 4.9-1.3 7.3-2.1a48.1 48.1 0 0 0 6.7-2.8l3.9-1.8 3.8-1.6 4-1.3a32.2 32.2 0 0 1 4.2-.9h2.8l1.8-.2 1.1-.2 1.9-.3 3.4-.7 4.1-.9 4.1-.9c1.3-.3 2.4-.9 3.3-1.1s1.6-.7 1.9-.7h6.4c2.7 0 5.4.5 8 .7s5.2.5 7.9.5a10.1 10.1 0 0 0 5.1-1.8 18.6 18.6 0 0 0 4.5-3.5 33.1 33.1 0 0 0 3.9-5 65 65 0 0 0 3.3-5.7c1-1.9 1.9-3.8 2.6-5.6s1.3-3.4 1.8-4.8.8-2.4 1.1-3.5l1-3.2a16 16 0 0 1 1.2-2.6 7.3 7.3 0 0 1 1.8-2 8 8 0 0 1 2.6-1.6 12.5 12.5 0 0 1 3.8-.8h3.1c.8 1.7 1.8.9 3 1.3a37.7 37.7 0 0 1 3.6 1.5 15.3 15.3 0 0 1 3 1.8 2.8 2.8 0 0 1 1.3 2.2 2.1 2.1 0 0 1-.5 1.4 3.1 3.1 0 0 1-1.1.9z"/></svg>