<svg xmlns="http://www.w3.org/2000/svg" width="256" height="256" viewBox="0 0 256 256"><path d="M128.3-.2a128 128 0 1 0 128 128 128 128 0 0 0-128-128zM239 116.6h-7.4c-3.1 0-6.1-.2-9.2-.5l-9.2-1-9.1-1c-3.1-.3-6.1-.5-9.2-.5a136 136 0 0 0-16.4 1 74.2 74.2 0 0 0-15.9 3.7l-30.7 11.1a2.5 2.5 0 0 0-1.2 1.6 20.5 20.5 0 0 0-.8 2.8l-.6 2.9a7 7 0 0 1-.6 2 3.2 3.2 0 0 0 1.4 1.3l2.5 1.2 2.9 1.2a18.3 18.3 0 0 1 2.8 1.5 8.6 8.6 0 0 1 2.1 1.9 3.9 3.9 0 0 1 .8 2.5 1.6 1.6 0 0 1-.5 1.2 5 5 0 0 1-1.2.9l-1.6.7-1.6.8a4.8 4.8 0 0 0-1.2 1.1 2.4 2.4 0 0 0-.5 1.5 3.7 3.7 0 0 0 .8 2.6 7.9 7.9 0 0 0 1.9 1.6l2.4 1.3a7.5 7.5 0 0 1 2.2 1.7 17.5 17.5 0 0 1 2 3.5 23.8 23.8 0 0 1 1.3 3.7 35.3 35.3 0 0 1 .8 3.9c.2 1.3.1 2.7.3 4l1.3 1.3v7.2h.9l1 .2 1 .2.6.2c.1.5.1.7.1.9a6.8 6.8 0 0 1-.1 1 7.1 7.1 0 0 1-.4 1.3 3.2 3.2 0 0 1-.6.9 1 1 0 0 1-.9.3H144c-.2 0-.5-.5-1-.8l-1.5-.9-1.6-.8c-.5-.3-.9-.9-1.2-.9h-6.2a4.7 4.7 0 0 1 .7-3 4.3 4.3 0 0 1 1.7-1.6 7.1 7.1 0 0 1 2.1-.7l2.1-.4a5.1 5.1 0 0 0 1.6-.6 1.5 1.5 0 0 0 .7-1.4 2.8 2.8 0 0 0 0-.3v-.3l-.9-1.8-1.3-2.4a26.9 26.9 0 0 0-1.5-2.5 9.5 9.5 0 0 0-1.6-1.8l-1.3-.8-1.9-1-1.8-1.1a2.2 2.2 0 0 1-1-1.1 23.1 23.1 0 0 1-.9-3 21.7 21.7 0 0 0-1.1-3.2 8 8 0 0 0-1.7-2.6 4 4 0 0 0-2.9-1.1 23.6 23.6 0 0 0-6.1.8 26.8 26.8 0 0 0-5.8 2.3 26.2 26.2 0 0 0-5 3.5 22.6 22.6 0 0 0-4 4.6l-.4.2h-.2v-.2l-.2-.3-.2-.6-.2-.6-.2-.3h-.3a1.4 1.4 0 0 0-1.1.5 6.7 6.7 0 0 0-.9 1.2l-.8 1.3a3.7 3.7 0 0 1-.9 1 4.4 4.4 0 0 1-.7-1.7 15.1 15.1 0 0 1-.1-1.7 10.5 10.5 0 0 1 .4-2.9l.9-2.8c.4-1 .7-1.6.9-2.6a19.8 19.8 0 0 0 .4-2.8h-4.9c0-1.7.2-1.8.7-2.4a5.9 5.9 0 0 1 1.6-1.6 7.2 7.2 0 0 1 2.1-.9l2.1-.3 3 .2 3 .5 2.9.5 2.9.2h2.3a2.6 2.6 0 0 0-1.7-1.4l-2.6-.5-2.7-.2c-.9-.1-1.6.2-2.2-.2l-3.9-2.2h-.3a13.6 13.6 0 0 0-3.2 0 13.3 13.3 0 0 1-3.2.2 7.4 7.4 0 0 1-3-.7l-2.7-1.4-2.6-1.4a5.2 5.2 0 0 0-2.9-.6v6.1l1.6-.2 1-.3.9-.5c.3-.2.4-.4.9-.7l.6-.2v2.8l2-.7c0 .1.2.3.2.5s.1.4.1.5a5.6 5.6 0 0 1-1.3 3.9 21.9 21.9 0 0 1-3.3 2.9 22.9 22.9 0 0 0-4.6-1.3L77 155v-7.8l-1.8.5-2.1 1a12.8 12.8 0 0 0-1.9 1.2c-.5.4-.9.8-.9 1.2v6.9a10.4 10.4 0 0 0 3-.3l1.8-.6 1.2-.6a2.7 2.7 0 0 1 1.2-.3h.4l.3.7.5 1.3.4 1.3a4.2 4.2 0 0 1 .2 1 5.1 5.1 0 0 1-.4 1.9 7.2 7.2 0 0 1-1.1 1.8 5.8 5.8 0 0 1-1.6 1.4 3.4 3.4 0 0 1-1.8.6h-1l-3-.5-3.7-.7a12.1 12.1 0 0 1-3.3-1.3 2.5 2.5 0 0 1-1.5-2.1v-11.7c0-.1.4-.4.9-.8l1.9-1.6 2.4-2.2a26.3 26.3 0 0 0 2.4-2.6 20.6 20.6 0 0 0 1.8-2.7 5.5 5.5 0 0 0 .7-2.6 3.9 3.9 0 0 0-1.2-2.8 11.8 11.8 0 0 0-2.8-2l-3-1.5-2.6-.9-1.3-9.2c-.2-.8-.4-1.7-.6-2.7a11.9 11.9 0 0 0-1.1-2.8 7.3 7.3 0 0 0-1.8-2.2 4.1 4.1 0 0 0-2.7-.9 12.5 12.5 0 0 0-3.7.5 15 15 0 0 0-3.2 1.5l-1.7 1-2.6 1.5-3 1.8-3 1.8-2.6 1.7c-.8.4-1.3 1.1-1.7 1.1h-1l-1.7-.2-2.1-.4a3.5 3.5 0 0 1-1.4-.8c-.5-.3-.4-.8-.4-1.4v-1.9c0-.6-.2-.9.1-.9h1.6a1.1 1.1 0 0 1 0-.4l.2-.8.2-.9a.9.9 0 0 0 0-.5 2.4 2.4 0 0 0-.8-.8l-.9-.5-.7-.7a2 2 0 0 1-.3-1.3 3.2 3.2 0 0 1 .2-1.2 4.9 4.9 0 0 1 .7-1.2c.3-.4.3-.7.6-.9l.8-.3v.8c0 .5.4 1 .6 1.5a1.2 1.2 0 0 0 1.2.7 1.6 1.6 0 0 0 1.1-.5 5.3 5.3 0 0 0 1-1.1 10.5 10.5 0 0 0 .6-1.6c.2-.5.3.3.3-1.4H21.2a1.9 1.9 0 0 1-.9-.5l-1.1-.7-.9-.8a1.5 1.5 0 0 1-.4-1 4.5 4.5 0 0 1 1.1-3.2 7.5 7.5 0 0 1 2.6-1.8 17.1 17.1 0 0 1 3.2-1l2.9-.8 2.2-.9 3.4-1.6 3.4-1.6a10.1 10.1 0 0 1 2.2-1.1h13.7a7.5 7.5 0 0 1 3.9 1 13.5 13.5 0 0 1 3.1 2.5 26.7 26.7 0 0 1 2.6 3.3l2.3 3.3a16.9 16.9 0 0 0 2.3 2.6 3.7 3.7 0 0 0 2.5 1 .8.8 0 0 0 .8-.4.9.9 0 0 1 .9-.4 3.9 3.9 0 0 1 1.5.3l1.5.7 1.5.7a3.9 3.9 0 0 0 1.6.3l4.1-.2 4.1-.5 4.1-.5 4.1-.2a65 65 0 0 1 7.3.4 39.1 39.1 0 0 1 7.3 1.6l5.1 2 5.1 2.2a46.4 46.4 0 0 0 5.3 1.8 21.5 21.5 0 0 0 5.5.7h2.6l13-2.7c4.3-.9 8.6-1.7 12.9-2.3s8.6-1.2 13-1.6 8.8-.6 13.2-.6h8.9a41.1 41.1 0 0 1 5.1.9l36.6 7.3h11.8c-.8 0-1.9 1-3.2 1.4a18.4 18.4 0 0 1-4 .4z"/></svg>